# xmcd
#
# Track frame offsets:
#	150
#	1579
#	25353
#	46462
#	64617
#	79407
#	100486
#	107936
#	126303
#	129888
#	145553
#	164222
#	184067
#	201626
#	227964
#	248072
#	267672
#	285443
#	300262
#	314321
#
# Disc length: 4409 seconds
#
# Revision: 1
# Processed by: cddbd v1.5.2PL0 Copyright (c) Steve Scherf et al.
# Submitted via: audiograbber 1.83.01
#
DISCID=21113714
DTITLE=Paisley, Brad - Wheelhouse (Special Edition)
DYEAR=2013
DGENRE=Country
TTITLE0=Bon Voyage
TTITLE1=Southern Comfort Zone
TTITLE2=Beat This Summer (w Dierks Bentley, Roger Miller and Hunter Hayes)
TTITLE3=Outstanding in Our Field
TTITLE4=Pressing on a Bruise (w Mat Kearney)
TTITLE5=I Can't Change the World
TTITLE6=Chinese Characters
TTITLE7=Karate (w Charlie Daniels)
TTITLE8=Death of a Married Man (w Eric Idle)
TTITLE9=Harvey Bodine
TTITLE10=Tin Can on a String
TTITLE11=Death of a Single Man
TTITLE12=Mona Lisa, The
TTITLE13=Accidental Racist (w LL Cool J)
TTITLE14=Runaway Train
TTITLE15=Those Crazy Christians
TTITLE16=Officially Alive
TTITLE17=Only Way She'll Stay
TTITLE18=She Never Really Got Over Him
TTITLE19=Beat This Summer (Acoustic)
EXTD=
EXTT0=
EXTT1=
EXTT2=
EXTT3=
EXTT4=
EXTT5=
EXTT6=
EXTT7=
EXTT8=
EXTT9=
EXTT10=
EXTT11=
EXTT12=
EXTT13=
EXTT14=
EXTT15=
EXTT16=
EXTT17=
EXTT18=
EXTT19=
PLAYORDER=
